<svg width="220" height="121" viewBox="0 0 220 121" fill="none" xmlns="http://www.w3.org/2000/svg">
<g filter="url(#filter0_d_277_66)">
<path d="M126.182 23.3131C123.074 23.9905 120.763 25.9829 119.727 28.8121C119.328 30.0075 119.208 35.4268 119.208 55.032V79.7377H124.787H130.366L130.485 56.7056C130.565 37.1403 130.645 33.7134 131.123 33.7134C131.442 33.7134 131.8 34.0322 131.92 34.3908C132.04 34.7893 134.59 44.0738 137.539 55.032C140.527 65.9902 143.197 75.3146 143.476 75.7529C144.432 77.2273 146.305 78.8611 147.58 79.3791C149.094 80.0565 156.347 80.1362 158.499 79.5385C160.332 79.0205 162.722 76.7093 163.798 74.3981C164.635 72.6049 164.635 72.0072 164.755 48.6962C164.834 35.5464 164.795 24.389 164.635 23.8709C164.436 22.9544 164.356 22.9544 158.857 22.9544H153.278V45.8271C153.278 58.7379 153.119 68.8194 152.92 68.9389C152.721 69.0585 152.402 68.9389 152.163 68.66C151.924 68.4209 149.294 59.1363 146.305 48.0586C142.639 34.4705 140.527 27.4572 139.89 26.461C138.375 24.0702 136.263 23.2334 131.561 23.1138C129.37 23.0341 126.939 23.1537 126.182 23.3131Z" fill="#09017B"/>
<path d="M177.267 23.6716C174.637 24.6279 173.043 26.1421 172.126 28.4932C171.449 30.1668 171.409 32.3584 171.409 55.0319V79.7376H176.988H182.567L182.686 56.7055C182.766 37.1402 182.846 33.7133 183.324 33.7133C183.642 33.7133 184.001 34.032 184.121 34.3907C184.24 34.7891 186.751 44.0737 189.739 55.0319C192.728 65.9901 195.437 75.3543 195.716 75.8325C196.673 77.2272 198.426 78.7813 199.781 79.379C201.335 80.0564 208.508 80.1361 210.779 79.4985C212.652 78.9805 214.883 76.7889 215.999 74.398C216.796 72.6048 216.836 72.0071 216.955 48.6562C216.995 35.5064 216.955 24.349 216.836 23.831C216.637 22.9543 216.517 22.9543 211.058 22.9543H205.479V45.827C205.479 58.7377 205.32 68.8193 205.121 68.9388C204.921 69.0584 204.603 68.9388 204.363 68.6599C204.124 68.3809 201.494 59.1362 198.506 48.0585C194.84 34.5102 192.728 27.4571 192.09 26.4609C190.536 24.0701 188.464 23.2332 183.563 23.0739C180.216 22.9543 178.98 23.0739 177.267 23.6716Z" fill="#09017B"/>
<path d="M88.5654 0.24099C79.4004 1.27704 69.3587 5.46108 60.9906 11.7172C59.0381 13.1916 55.2127 16.5786 52.4632 19.2485L47.4822 24.1498H38.0382C27.4785 24.1498 21.5412 24.7475 16.0023 26.3414C10.8221 27.8556 8.35149 29.2104 5.40275 32.1193C-0.534595 38.0168 -1.61049 45.1895 2.33446 53.159C4.32685 57.2235 7.71393 60.8497 10.9018 62.2842L13.0934 63.2804L15.0459 62.3639L16.9985 61.4474L15.6437 60.0527C11.1408 55.3905 11.6987 47.8194 16.9985 41.9618C20.3856 38.1762 28.7138 32.478 33.6948 30.5653C38.078 28.8917 44.0951 27.5767 44.0951 28.3338C44.0951 28.4135 42.7403 30.5653 41.0666 33.0757C34.4917 43.0775 30.5468 52.8403 29.1123 62.5632C26.9206 77.3866 32.579 87.3087 44.6928 89.8988C48.319 90.6958 55.9698 90.5364 60.4327 89.5801C74.6186 86.5118 88.0474 76.9483 99.6033 61.6865C110.601 47.142 116.897 28.6924 114.865 16.9771C113.59 9.60526 110.123 4.78366 104.146 2.03415C100.161 0.240992 94.5824 -0.396577 88.5654 0.24099ZM103.07 8.60905C106.377 10.2827 107.772 13.869 106.338 17.0568C104.664 20.8424 98.7664 23.8708 89.2826 25.7437C82.5882 27.0985 65.613 27.3376 65.613 26.0625C65.613 25.1858 72.9848 19.2485 78.962 15.3035C89.3623 8.40982 97.9695 6.01894 103.07 8.60905ZM102.154 30.6051C95.5388 44.0339 83.0265 59.6543 69.797 71.1305C59.1178 80.3752 50.9489 83.7224 44.0552 81.6902C41.3057 80.8932 38.875 78.4625 38.1179 75.8325C37.4006 73.1627 37.7991 66.548 38.9149 63.0015C41.7441 54.0357 48.8768 42.8783 57.6832 33.5539L60.6718 30.4059L63.8198 30.8841C65.5731 31.163 70.315 31.4818 74.3795 31.6013C85.9753 31.9201 95.1004 30.2465 101.675 26.5805C103.229 25.7038 104.544 25.1061 104.624 25.1858C104.704 25.2655 103.588 27.6962 102.154 30.6051Z" fill="#FF0000"/>
<path d="M80.8745 81.2518C78.9618 82.2081 78.8423 82.6863 79.5994 86.3922C80.755 91.931 82.7872 95.9158 86.3337 99.4623C89.0832 102.252 93.1078 104.483 96.8934 105.4C102.273 106.715 113.032 105.121 124.787 101.255C138.893 96.6331 150.808 93.8836 156.825 93.8836C160.252 93.8836 164.874 95.1188 167.783 96.8323C171.688 99.1435 174.796 104.045 174.796 108.03C174.796 110.699 174.278 112.054 172.684 113.728C171.17 115.282 168.978 115.959 166.388 115.601C164.475 115.322 163.639 114.604 165.233 114.604C166.428 114.604 167.942 112.931 168.221 111.297C168.62 109.145 167.105 104.921 165.153 102.81C161.965 99.3826 158.1 99.1036 155.789 102.132C154.792 103.407 154.673 103.925 154.673 106.396C154.713 108.667 154.912 109.663 155.828 111.576C158.219 116.437 162.842 119.585 167.623 119.506C173.999 119.386 178.382 115.003 178.382 108.707C178.382 100.259 172.684 93.7242 163.041 91.0544C160.212 90.2972 159.216 90.2176 153.876 90.4168C150.13 90.5363 145.667 91.0145 141.922 91.6919C124.548 94.7204 122.237 94.9993 113.829 95.0392C98.7662 95.079 90.1989 91.931 84.939 84.3599C83.9428 82.9254 83.1459 81.5706 83.1459 81.2916C83.1459 80.415 82.588 80.415 80.8745 81.2518Z" fill="#FF0000"/>
</g>
<defs>
<filter id="filter0_d_277_66" x="0" y="0" width="219.97" height="120.507" filterUnits="userSpaceOnUse" color-interpolation-filters="sRGB">
<feFlood flood-opacity="0" result="BackgroundImageFix"/>
<feColorMatrix in="SourceAlpha" type="matrix" values="0 0 0 0 0 0 0 0 0 0 0 0 0 0 0 0 0 0 127 0" result="hardAlpha"/>
<feOffset dx="3" dy="1"/>
<feComposite in2="hardAlpha" operator="out"/>
<feColorMatrix type="matrix" values="0 0 0 0 1 0 0 0 0 1 0 0 0 0 1 0 0 0 1 0"/>
<feBlend mode="normal" in2="BackgroundImageFix" result="effect1_dropShadow_277_66"/>
<feBlend mode="normal" in="SourceGraphic" in2="effect1_dropShadow_277_66" result="shape"/>
</filter>
</defs>
</svg>
