<svg width="569" height="356" viewBox="0 0 569 356" fill="none" xmlns="http://www.w3.org/2000/svg">
<g filter="url(#filter0_d_267_7741)">
<g filter="url(#filter1_d_267_7741)">
<mask id="path-1-outside-1_267_7741" maskUnits="userSpaceOnUse" x="-1" y="-1.55035" width="284" height="223" fill="black">
<rect fill="white" x="-1" y="-1.55035" width="284" height="223"/>
<path d="M215.954 0.587599C193.606 3.11385 169.121 13.316 148.717 28.5707C143.956 32.1657 134.628 40.4246 127.924 46.9346L115.778 58.8857H92.7507C67.0024 58.8857 52.525 60.3431 39.0193 64.2297C26.3881 67.9219 20.3639 71.2255 13.1738 78.3184C-1.30353 92.6986 -3.92695 110.188 5.69223 129.621C10.5504 139.531 18.8093 148.373 26.5824 151.871L31.9264 154.3L36.6874 152.065L41.4484 149.831L38.1448 146.43C27.1654 135.062 28.5256 116.601 41.4484 102.318C49.7073 93.0872 70.0144 79.1929 82.1599 74.529C92.8479 70.4481 107.52 67.2418 107.52 69.0879C107.52 69.2822 104.216 74.529 100.135 80.6503C84.1031 105.038 74.484 128.843 70.9861 152.551C65.6421 188.696 79.4393 212.89 108.977 219.205C117.819 221.149 136.474 220.76 147.357 218.428C181.947 210.947 214.691 187.627 242.868 150.414C269.685 114.949 285.037 69.9623 280.082 41.3963C276.973 23.421 268.519 11.6642 253.945 4.95995C244.229 0.587599 230.626 -0.967017 215.954 0.587599ZM251.321 20.9919C259.386 25.0728 262.787 33.8175 259.289 41.5906C255.208 50.8211 240.828 58.2055 217.703 62.7722C201.379 66.0758 159.988 66.6588 159.988 63.5495C159.988 61.4119 177.963 46.9346 192.538 37.3154C217.897 20.5061 238.885 14.6763 251.321 20.9919ZM249.087 74.6262C232.958 107.37 202.448 145.458 170.19 173.441C144.15 195.983 124.232 204.145 107.422 199.19C100.718 197.246 94.7911 191.319 92.945 184.907C91.1961 178.397 92.1677 162.268 94.8883 153.62C101.787 131.758 119.179 104.553 140.652 81.8163L147.94 74.1404L155.615 75.3063C159.891 75.9865 171.453 76.7638 181.364 77.0553C209.638 77.8326 231.889 73.7517 247.921 64.8127C251.71 62.6751 254.917 61.2176 255.111 61.4119C255.305 61.6063 252.585 67.5332 249.087 74.6262Z"/>
</mask>
<path d="M215.954 0.587599C193.606 3.11385 169.121 13.316 148.717 28.5707C143.956 32.1657 134.628 40.4246 127.924 46.9346L115.778 58.8857H92.7507C67.0024 58.8857 52.525 60.3431 39.0193 64.2297C26.3881 67.9219 20.3639 71.2255 13.1738 78.3184C-1.30353 92.6986 -3.92695 110.188 5.69223 129.621C10.5504 139.531 18.8093 148.373 26.5824 151.871L31.9264 154.3L36.6874 152.065L41.4484 149.831L38.1448 146.43C27.1654 135.062 28.5256 116.601 41.4484 102.318C49.7073 93.0872 70.0144 79.1929 82.1599 74.529C92.8479 70.4481 107.52 67.2418 107.52 69.0879C107.52 69.2822 104.216 74.529 100.135 80.6503C84.1031 105.038 74.484 128.843 70.9861 152.551C65.6421 188.696 79.4393 212.89 108.977 219.205C117.819 221.149 136.474 220.76 147.357 218.428C181.947 210.947 214.691 187.627 242.868 150.414C269.685 114.949 285.037 69.9623 280.082 41.3963C276.973 23.421 268.519 11.6642 253.945 4.95995C244.229 0.587599 230.626 -0.967017 215.954 0.587599ZM251.321 20.9919C259.386 25.0728 262.787 33.8175 259.289 41.5906C255.208 50.8211 240.828 58.2055 217.703 62.7722C201.379 66.0758 159.988 66.6588 159.988 63.5495C159.988 61.4119 177.963 46.9346 192.538 37.3154C217.897 20.5061 238.885 14.6763 251.321 20.9919ZM249.087 74.6262C232.958 107.37 202.448 145.458 170.19 173.441C144.15 195.983 124.232 204.145 107.422 199.19C100.718 197.246 94.7911 191.319 92.945 184.907C91.1961 178.397 92.1677 162.268 94.8883 153.62C101.787 131.758 119.179 104.553 140.652 81.8163L147.94 74.1404L155.615 75.3063C159.891 75.9865 171.453 76.7638 181.364 77.0553C209.638 77.8326 231.889 73.7517 247.921 64.8127C251.71 62.6751 254.917 61.2176 255.111 61.4119C255.305 61.6063 252.585 67.5332 249.087 74.6262Z" fill="#FF0000"/>
<path d="M215.954 0.587599C193.606 3.11385 169.121 13.316 148.717 28.5707C143.956 32.1657 134.628 40.4246 127.924 46.9346L115.778 58.8857H92.7507C67.0024 58.8857 52.525 60.3431 39.0193 64.2297C26.3881 67.9219 20.3639 71.2255 13.1738 78.3184C-1.30353 92.6986 -3.92695 110.188 5.69223 129.621C10.5504 139.531 18.8093 148.373 26.5824 151.871L31.9264 154.3L36.6874 152.065L41.4484 149.831L38.1448 146.43C27.1654 135.062 28.5256 116.601 41.4484 102.318C49.7073 93.0872 70.0144 79.1929 82.1599 74.529C92.8479 70.4481 107.52 67.2418 107.52 69.0879C107.52 69.2822 104.216 74.529 100.135 80.6503C84.1031 105.038 74.484 128.843 70.9861 152.551C65.6421 188.696 79.4393 212.89 108.977 219.205C117.819 221.149 136.474 220.76 147.357 218.428C181.947 210.947 214.691 187.627 242.868 150.414C269.685 114.949 285.037 69.9623 280.082 41.3963C276.973 23.421 268.519 11.6642 253.945 4.95995C244.229 0.587599 230.626 -0.967017 215.954 0.587599ZM251.321 20.9919C259.386 25.0728 262.787 33.8175 259.289 41.5906C255.208 50.8211 240.828 58.2055 217.703 62.7722C201.379 66.0758 159.988 66.6588 159.988 63.5495C159.988 61.4119 177.963 46.9346 192.538 37.3154C217.897 20.5061 238.885 14.6763 251.321 20.9919ZM249.087 74.6262C232.958 107.37 202.448 145.458 170.19 173.441C144.15 195.983 124.232 204.145 107.422 199.19C100.718 197.246 94.7911 191.319 92.945 184.907C91.1961 178.397 92.1677 162.268 94.8883 153.62C101.787 131.758 119.179 104.553 140.652 81.8163L147.94 74.1404L155.615 75.3063C159.891 75.9865 171.453 76.7638 181.364 77.0553C209.638 77.8326 231.889 73.7517 247.921 64.8127C251.71 62.6751 254.917 61.2176 255.111 61.4119C255.305 61.6063 252.585 67.5332 249.087 74.6262Z" stroke="white" stroke-width="2" mask="url(#path-1-outside-1_267_7741)"/>
<mask id="path-2-outside-2_267_7741" maskUnits="userSpaceOnUse" x="289.673" y="54.9248" width="114" height="141" fill="black">
<rect fill="white" x="289.673" y="54.9248" width="114" height="141"/>
<path d="M307.676 56.8453C300.097 58.4971 294.462 63.3552 291.936 70.2539C290.964 73.1688 290.673 86.383 290.673 134.187V194.429H304.275H317.878L318.17 138.268C318.364 90.561 318.559 82.205 319.724 82.205C320.502 82.205 321.376 82.9823 321.668 83.8567C321.959 84.8284 328.178 107.467 335.368 134.187C342.655 160.907 349.165 183.644 349.845 184.712C352.177 188.307 356.744 192.291 359.853 193.554C363.545 195.206 381.229 195.4 386.476 193.943C390.945 192.68 396.775 187.044 399.399 181.409C401.439 177.036 401.439 175.579 401.73 118.738C401.925 86.6745 401.828 59.4687 401.439 58.2056C400.953 55.9708 400.759 55.9708 387.35 55.9708H373.747V111.743C373.747 143.224 373.359 167.806 372.873 168.097C372.387 168.389 371.61 168.097 371.027 167.417C370.444 166.834 364.031 144.195 356.744 117.184C347.805 84.0511 342.655 66.9503 341.1 64.5212C337.408 58.6914 332.259 56.651 320.793 56.3595C315.449 56.1651 309.522 56.4566 307.676 56.8453Z"/>
</mask>
<path d="M307.676 56.8453C300.097 58.4971 294.462 63.3552 291.936 70.2539C290.964 73.1688 290.673 86.383 290.673 134.187V194.429H304.275H317.878L318.17 138.268C318.364 90.561 318.559 82.205 319.724 82.205C320.502 82.205 321.376 82.9823 321.668 83.8567C321.959 84.8284 328.178 107.467 335.368 134.187C342.655 160.907 349.165 183.644 349.845 184.712C352.177 188.307 356.744 192.291 359.853 193.554C363.545 195.206 381.229 195.4 386.476 193.943C390.945 192.68 396.775 187.044 399.399 181.409C401.439 177.036 401.439 175.579 401.73 118.738C401.925 86.6745 401.828 59.4687 401.439 58.2056C400.953 55.9708 400.759 55.9708 387.35 55.9708H373.747V111.743C373.747 143.224 373.359 167.806 372.873 168.097C372.387 168.389 371.61 168.097 371.027 167.417C370.444 166.834 364.031 144.195 356.744 117.184C347.805 84.0511 342.655 66.9503 341.1 64.5212C337.408 58.6914 332.259 56.651 320.793 56.3595C315.449 56.1651 309.522 56.4566 307.676 56.8453Z" fill="#09017B"/>
<path d="M307.676 56.8453C300.097 58.4971 294.462 63.3552 291.936 70.2539C290.964 73.1688 290.673 86.383 290.673 134.187V194.429H304.275H317.878L318.17 138.268C318.364 90.561 318.559 82.205 319.724 82.205C320.502 82.205 321.376 82.9823 321.668 83.8567C321.959 84.8284 328.178 107.467 335.368 134.187C342.655 160.907 349.165 183.644 349.845 184.712C352.177 188.307 356.744 192.291 359.853 193.554C363.545 195.206 381.229 195.4 386.476 193.943C390.945 192.68 396.775 187.044 399.399 181.409C401.439 177.036 401.439 175.579 401.73 118.738C401.925 86.6745 401.828 59.4687 401.439 58.2056C400.953 55.9708 400.759 55.9708 387.35 55.9708H373.747V111.743C373.747 143.224 373.359 167.806 372.873 168.097C372.387 168.389 371.61 168.097 371.027 167.417C370.444 166.834 364.031 144.195 356.744 117.184C347.805 84.0511 342.655 66.9503 341.1 64.5212C337.408 58.6914 332.259 56.651 320.793 56.3595C315.449 56.1651 309.522 56.4566 307.676 56.8453Z" stroke="white" stroke-width="2" mask="url(#path-2-outside-2_267_7741)"/>
<mask id="path-3-outside-3_267_7741" maskUnits="userSpaceOnUse" x="416.957" y="54.9092" width="114" height="141" fill="black">
<rect fill="white" x="416.957" y="54.9092" width="114" height="141"/>
<path d="M432.24 57.7197C425.827 60.0516 421.94 63.7438 419.706 69.4765C418.054 73.5573 417.957 78.9013 417.957 134.187V194.429H431.56H445.163L445.454 138.268C445.648 90.5609 445.843 82.2049 447.009 82.2049C447.786 82.2049 448.66 82.9822 448.952 83.8567C449.243 84.8283 455.365 107.467 462.652 134.187C469.939 160.907 476.546 183.741 477.227 184.907C479.558 188.307 483.834 192.097 487.137 193.554C490.927 195.206 508.416 195.4 513.954 193.846C518.521 192.583 523.962 187.239 526.683 181.409C528.626 177.036 528.723 175.579 529.015 118.641C529.112 86.5772 529.015 59.3715 528.723 58.1083C528.237 55.9707 527.946 55.9707 514.634 55.9707H501.032V111.743C501.032 143.224 500.643 167.806 500.157 168.097C499.671 168.389 498.894 168.097 498.311 167.417C497.728 166.737 491.315 144.195 484.028 117.184C475.089 84.1481 469.939 66.9502 468.385 64.5211C464.595 58.6913 459.543 56.6509 447.592 56.2622C439.43 55.9707 436.418 56.2622 432.24 57.7197Z"/>
</mask>
<path d="M432.24 57.7197C425.827 60.0516 421.94 63.7438 419.706 69.4765C418.054 73.5573 417.957 78.9013 417.957 134.187V194.429H431.56H445.163L445.454 138.268C445.648 90.5609 445.843 82.2049 447.009 82.2049C447.786 82.2049 448.66 82.9822 448.952 83.8567C449.243 84.8283 455.365 107.467 462.652 134.187C469.939 160.907 476.546 183.741 477.227 184.907C479.558 188.307 483.834 192.097 487.137 193.554C490.927 195.206 508.416 195.4 513.954 193.846C518.521 192.583 523.962 187.239 526.683 181.409C528.626 177.036 528.723 175.579 529.015 118.641C529.112 86.5772 529.015 59.3715 528.723 58.1083C528.237 55.9707 527.946 55.9707 514.634 55.9707H501.032V111.743C501.032 143.224 500.643 167.806 500.157 168.097C499.671 168.389 498.894 168.097 498.311 167.417C497.728 166.737 491.315 144.195 484.028 117.184C475.089 84.1481 469.939 66.9502 468.385 64.5211C464.595 58.6913 459.543 56.6509 447.592 56.2622C439.43 55.9707 436.418 56.2622 432.24 57.7197Z" fill="#09017B"/>
<path d="M432.24 57.7197C425.827 60.0516 421.94 63.7438 419.706 69.4765C418.054 73.5573 417.957 78.9013 417.957 134.187V194.429H431.56H445.163L445.454 138.268C445.648 90.5609 445.843 82.2049 447.009 82.2049C447.786 82.2049 448.66 82.9822 448.952 83.8567C449.243 84.8283 455.365 107.467 462.652 134.187C469.939 160.907 476.546 183.741 477.227 184.907C479.558 188.307 483.834 192.097 487.137 193.554C490.927 195.206 508.416 195.4 513.954 193.846C518.521 192.583 523.962 187.239 526.683 181.409C528.626 177.036 528.723 175.579 529.015 118.641C529.112 86.5772 529.015 59.3715 528.723 58.1083C528.237 55.9707 527.946 55.9707 514.634 55.9707H501.032V111.743C501.032 143.224 500.643 167.806 500.157 168.097C499.671 168.389 498.894 168.097 498.311 167.417C497.728 166.737 491.315 144.195 484.028 117.184C475.089 84.1481 469.939 66.9502 468.385 64.5211C464.595 58.6913 459.543 56.6509 447.592 56.2622C439.43 55.9707 436.418 56.2622 432.24 57.7197Z" stroke="white" stroke-width="2" mask="url(#path-3-outside-3_267_7741)"/>
<mask id="path-4-outside-4_267_7741" maskUnits="userSpaceOnUse" x="192.033" y="195.401" width="244" height="97" fill="black">
<rect fill="white" x="192.033" y="195.401" width="244" height="97"/>
<path d="M197.201 198.121C192.537 200.453 192.246 201.619 194.092 210.655C196.91 224.161 201.865 233.877 210.513 242.524C217.217 249.326 227.03 254.767 236.261 257.002C249.378 260.208 275.612 256.322 304.275 246.897C338.671 235.626 367.723 228.922 382.395 228.922C390.751 228.922 402.022 231.934 409.115 236.112C418.637 241.747 426.215 253.698 426.215 263.415C426.215 269.925 424.952 273.228 421.066 277.309C417.374 281.098 412.03 282.75 405.714 281.876C401.05 281.195 399.01 279.447 402.896 279.447C405.811 279.447 409.503 275.366 410.184 271.382C411.155 266.135 407.463 255.836 402.702 250.686C394.929 242.33 385.504 241.65 379.869 249.034C377.439 252.144 377.148 253.407 377.148 259.431C377.245 264.969 377.731 267.398 379.966 272.062C385.795 283.916 397.066 291.592 408.726 291.398C424.272 291.106 434.96 280.418 434.96 265.066C434.96 244.468 421.066 228.533 397.552 222.023C390.654 220.177 388.225 219.982 375.205 220.468C366.071 220.76 355.189 221.926 346.056 223.578C303.692 230.962 298.057 231.642 277.555 231.739C240.828 231.836 219.937 224.161 207.112 205.699C204.683 202.202 202.74 198.898 202.74 198.218C202.74 196.08 201.379 196.08 197.201 198.121Z"/>
</mask>
<path d="M197.201 198.121C192.537 200.453 192.246 201.619 194.092 210.655C196.91 224.161 201.865 233.877 210.513 242.524C217.217 249.326 227.03 254.767 236.261 257.002C249.378 260.208 275.612 256.322 304.275 246.897C338.671 235.626 367.723 228.922 382.395 228.922C390.751 228.922 402.022 231.934 409.115 236.112C418.637 241.747 426.215 253.698 426.215 263.415C426.215 269.925 424.952 273.228 421.066 277.309C417.374 281.098 412.03 282.75 405.714 281.876C401.05 281.195 399.01 279.447 402.896 279.447C405.811 279.447 409.503 275.366 410.184 271.382C411.155 266.135 407.463 255.836 402.702 250.686C394.929 242.33 385.504 241.65 379.869 249.034C377.439 252.144 377.148 253.407 377.148 259.431C377.245 264.969 377.731 267.398 379.966 272.062C385.795 283.916 397.066 291.592 408.726 291.398C424.272 291.106 434.96 280.418 434.96 265.066C434.96 244.468 421.066 228.533 397.552 222.023C390.654 220.177 388.225 219.982 375.205 220.468C366.071 220.76 355.189 221.926 346.056 223.578C303.692 230.962 298.057 231.642 277.555 231.739C240.828 231.836 219.937 224.161 207.112 205.699C204.683 202.202 202.74 198.898 202.74 198.218C202.74 196.08 201.379 196.08 197.201 198.121Z" fill="#FF0000"/>
<path d="M197.201 198.121C192.537 200.453 192.246 201.619 194.092 210.655C196.91 224.161 201.865 233.877 210.513 242.524C217.217 249.326 227.03 254.767 236.261 257.002C249.378 260.208 275.612 256.322 304.275 246.897C338.671 235.626 367.723 228.922 382.395 228.922C390.751 228.922 402.022 231.934 409.115 236.112C418.637 241.747 426.215 253.698 426.215 263.415C426.215 269.925 424.952 273.228 421.066 277.309C417.374 281.098 412.03 282.75 405.714 281.876C401.05 281.195 399.01 279.447 402.896 279.447C405.811 279.447 409.503 275.366 410.184 271.382C411.155 266.135 407.463 255.836 402.702 250.686C394.929 242.33 385.504 241.65 379.869 249.034C377.439 252.144 377.148 253.407 377.148 259.431C377.245 264.969 377.731 267.398 379.966 272.062C385.795 283.916 397.066 291.592 408.726 291.398C424.272 291.106 434.96 280.418 434.96 265.066C434.96 244.468 421.066 228.533 397.552 222.023C390.654 220.177 388.225 219.982 375.205 220.468C366.071 220.76 355.189 221.926 346.056 223.578C303.692 230.962 298.057 231.642 277.555 231.739C240.828 231.836 219.937 224.161 207.112 205.699C204.683 202.202 202.74 198.898 202.74 198.218C202.74 196.08 201.379 196.08 197.201 198.121Z" stroke="white" stroke-width="2" mask="url(#path-4-outside-4_267_7741)"/>
</g>
<path d="M15.232 311.628C15.4 311.628 15.796 311.628 16.42 311.628C17.068 311.604 17.776 311.592 18.544 311.592C19.312 311.592 20.08 311.592 20.848 311.592C21.616 311.568 22.24 311.556 22.72 311.556C25.792 311.556 28.096 312.216 29.632 313.536C31.168 314.832 31.936 316.644 31.936 318.972C31.936 321.54 31.072 323.472 29.344 324.768C27.616 326.04 25.252 326.676 22.252 326.676H21.172V336H15.232V311.628ZM21.172 322.752H22.684C23.5 322.752 24.208 322.476 24.808 321.924C25.408 321.348 25.708 320.46 25.708 319.26C25.708 318.252 25.456 317.376 24.952 316.632C24.472 315.888 23.656 315.504 22.504 315.48C22.192 315.48 21.928 315.492 21.712 315.516C21.496 315.516 21.316 315.528 21.172 315.552V322.752ZM50.762 311.628L50.006 315.984H44.39V336H38.45V315.984H32.654V311.628H50.762ZM85.0599 341.292C83.9079 342.06 82.7439 342.648 81.5679 343.056C80.3919 343.488 79.0599 343.704 77.5719 343.704C76.8039 343.704 75.9879 343.62 75.1239 343.452C74.2599 343.284 73.3599 343.02 72.4239 342.66C71.5119 342.3 70.5879 341.844 69.6519 341.292C68.7159 340.74 67.8039 340.068 66.9159 339.276L67.9599 336.072C68.2239 336.12 68.5119 336.156 68.8239 336.18C69.1359 336.204 69.4239 336.216 69.6879 336.216C70.8639 336.216 71.9199 335.94 72.8559 335.388C73.7919 334.836 74.5839 334.044 75.2319 333.012C75.9039 331.956 76.4199 330.684 76.7799 329.196C77.1399 327.684 77.3199 325.968 77.3199 324.048C77.3199 322.824 77.2359 321.696 77.0679 320.664C76.9239 319.608 76.6479 318.708 76.2399 317.964C75.8559 317.196 75.3399 316.596 74.6919 316.164C74.0439 315.732 73.2279 315.516 72.2439 315.516C70.6839 315.516 69.5319 316.248 68.7879 317.712C68.0439 319.152 67.6719 321.12 67.6719 323.616C67.6719 324.744 67.7319 325.704 67.8519 326.496C67.9719 327.264 68.1519 327.912 68.3919 328.44C68.6559 328.968 68.9679 329.388 69.3279 329.7C69.7119 329.988 70.1679 330.228 70.6959 330.42L70.1199 334.308C68.6079 334.212 67.2999 333.876 66.1959 333.3C65.0919 332.7 64.1679 331.932 63.4239 330.996C62.7039 330.036 62.1639 328.956 61.8039 327.756C61.4439 326.532 61.2639 325.26 61.2639 323.94C61.2639 322.116 61.5159 320.436 62.0199 318.9C62.5479 317.364 63.2919 316.032 64.2519 314.904C65.2359 313.776 66.4359 312.9 67.8519 312.276C69.2919 311.628 70.9239 311.304 72.7479 311.304C74.5479 311.304 76.1319 311.592 77.4999 312.168C78.8679 312.744 80.0199 313.572 80.9559 314.652C81.8919 315.708 82.5879 317.004 83.0439 318.54C83.5239 320.052 83.7639 321.756 83.7639 323.652C83.7639 325.716 83.5359 327.588 83.0799 329.268C82.6479 330.924 82.0359 332.388 81.2439 333.66C80.4519 334.932 79.5159 335.988 78.4359 336.828C77.3559 337.692 76.1799 338.34 74.9079 338.772C75.5799 339.108 76.3119 339.276 77.1039 339.276C78.1839 339.276 79.1919 339.072 80.1279 338.664C81.0879 338.28 82.0839 337.836 83.1159 337.332L85.0599 341.292ZM93.1276 311.628V326.136C93.1276 327.192 93.2356 328.068 93.4516 328.764C93.6916 329.46 94.0036 330.024 94.3876 330.456C94.7956 330.888 95.2756 331.2 95.8276 331.392C96.3796 331.56 96.9676 331.644 97.5916 331.644C98.8876 331.644 99.8716 331.188 100.544 330.276C101.24 329.34 101.588 327.96 101.588 326.136V311.628H107.528V326.46C107.528 327.756 107.348 328.992 106.988 330.168C106.628 331.344 106.028 332.388 105.188 333.3C104.372 334.188 103.304 334.896 101.984 335.424C100.664 335.952 99.0436 336.216 97.1236 336.216C95.2756 336.216 93.7156 335.952 92.4436 335.424C91.1956 334.872 90.1876 334.152 89.4196 333.264C88.6516 332.352 88.0876 331.308 87.7276 330.132C87.3916 328.956 87.2236 327.732 87.2236 326.46V311.628H93.1276ZM111.63 311.628H127.146V315.984H117.57V321.204H125.526L124.842 325.488H117.57V331.644H127.65V336H111.63V311.628ZM130.509 311.628H146.025V315.984H136.449V321.204H144.405L143.721 325.488H136.449V331.644H146.529V336H130.509V311.628ZM163.788 311.628H169.728V336H164.652L157.704 325.488C157.56 325.272 157.356 324.96 157.092 324.552C156.852 324.144 156.588 323.724 156.3 323.292C156.036 322.836 155.772 322.404 155.508 321.996C155.268 321.564 155.064 321.216 154.896 320.952C154.92 321.312 154.944 321.756 154.968 322.284C155.016 322.788 155.052 323.304 155.076 323.832C155.124 324.36 155.16 324.876 155.184 325.38C155.208 325.884 155.22 326.304 155.22 326.64L155.328 336H149.388V311.628H154.248L161.268 322.068C161.484 322.404 161.724 322.788 161.988 323.22C162.252 323.628 162.516 324.048 162.78 324.48C163.068 324.912 163.332 325.332 163.572 325.74C163.812 326.124 164.016 326.46 164.184 326.748C164.16 326.364 164.136 325.92 164.112 325.416C164.088 324.912 164.052 324.396 164.004 323.868C163.98 323.316 163.956 322.788 163.932 322.284C163.908 321.78 163.896 321.336 163.896 320.952L163.788 311.628ZM197.784 311.628H203.724V336H198.648L191.7 325.488C191.556 325.272 191.352 324.96 191.088 324.552C190.848 324.144 190.584 323.724 190.296 323.292C190.032 322.836 189.768 322.404 189.504 321.996C189.264 321.564 189.06 321.216 188.892 320.952C188.916 321.312 188.94 321.756 188.964 322.284C189.012 322.788 189.048 323.304 189.072 323.832C189.12 324.36 189.156 324.876 189.18 325.38C189.204 325.884 189.216 326.304 189.216 326.64L189.324 336H183.384V311.628H188.244L195.264 322.068C195.48 322.404 195.72 322.788 195.984 323.22C196.248 323.628 196.512 324.048 196.776 324.48C197.064 324.912 197.328 325.332 197.568 325.74C197.808 326.124 198.012 326.46 198.18 326.748C198.156 326.364 198.132 325.92 198.108 325.416C198.084 324.912 198.048 324.396 198 323.868C197.976 323.316 197.952 322.788 197.928 322.284C197.904 321.78 197.892 321.336 197.892 320.952L197.784 311.628ZM208.205 311.628H223.721V315.984H214.145V321.204H222.101L221.417 325.488H214.145V331.644H224.225V336H208.205V311.628ZM243.559 311.628L242.803 315.984H237.187V336H231.247V315.984H225.451V311.628H243.559ZM261.761 324.876C261.593 324.348 261.437 323.808 261.293 323.256C261.173 322.704 261.053 322.176 260.933 321.672C260.837 321.168 260.741 320.712 260.645 320.304C260.573 319.896 260.501 319.572 260.429 319.332C260.381 319.572 260.309 319.92 260.213 320.376C260.117 320.832 260.009 321.324 259.889 321.852C259.793 322.38 259.685 322.92 259.565 323.472C259.445 324.024 259.313 324.528 259.169 324.984L255.749 336H250.961L244.193 311.628H250.097L252.401 320.772C252.545 321.324 252.677 321.9 252.797 322.5C252.917 323.1 253.037 323.712 253.157 324.336C253.277 324.936 253.385 325.524 253.481 326.1C253.577 326.652 253.661 327.144 253.733 327.576C253.925 326.688 254.153 325.62 254.417 324.372C254.705 323.1 255.017 321.912 255.353 320.808L258.089 311.628H262.913L265.721 320.88C266.129 322.2 266.441 323.46 266.657 324.66C266.897 325.836 267.113 326.856 267.305 327.72C267.425 326.856 267.581 325.836 267.773 324.66C267.965 323.484 268.229 322.212 268.565 320.844L270.833 311.628H276.809L270.041 336H265.253L261.761 324.876ZM289.169 311.304C291.065 311.304 292.697 311.592 294.065 312.168C295.433 312.744 296.561 313.56 297.449 314.616C298.337 315.672 298.985 316.968 299.393 318.504C299.825 320.016 300.041 321.72 300.041 323.616C300.041 325.488 299.801 327.204 299.321 328.764C298.865 330.3 298.169 331.62 297.233 332.724C296.297 333.828 295.121 334.692 293.705 335.316C292.289 335.916 290.621 336.216 288.701 336.216C286.805 336.216 285.161 335.952 283.769 335.424C282.401 334.872 281.273 334.08 280.385 333.048C279.497 331.992 278.837 330.72 278.405 329.232C277.997 327.744 277.793 326.04 277.793 324.12C277.793 322.248 278.021 320.532 278.477 318.972C278.957 317.388 279.665 316.032 280.601 314.904C281.537 313.752 282.713 312.864 284.129 312.24C285.569 311.616 287.249 311.304 289.169 311.304ZM288.665 315.516C287.105 315.516 285.965 316.248 285.245 317.712C284.549 319.152 284.201 321.156 284.201 323.724C284.201 324.948 284.273 326.064 284.417 327.072C284.585 328.08 284.849 328.956 285.209 329.7C285.593 330.42 286.109 330.984 286.757 331.392C287.405 331.8 288.221 332.004 289.205 332.004C290.765 332.004 291.893 331.308 292.589 329.916C293.285 328.524 293.633 326.544 293.633 323.976C293.633 322.752 293.549 321.624 293.381 320.592C293.237 319.56 292.973 318.672 292.589 317.928C292.229 317.16 291.725 316.572 291.077 316.164C290.429 315.732 289.625 315.516 288.665 315.516ZM303.654 311.628C303.87 311.628 304.302 311.628 304.95 311.628C305.598 311.604 306.318 311.592 307.11 311.592C307.902 311.592 308.67 311.592 309.414 311.592C310.158 311.568 310.734 311.556 311.142 311.556C314.214 311.556 316.518 312.144 318.054 313.32C319.59 314.496 320.358 316.236 320.358 318.54C320.358 320.076 319.986 321.348 319.242 322.356C318.498 323.34 317.49 324.108 316.218 324.66C316.938 325.068 317.574 325.608 318.126 326.28C318.678 326.952 319.206 327.768 319.71 328.728C320.214 329.664 320.718 330.744 321.222 331.968C321.75 333.192 322.326 334.536 322.95 336H316.578C315.81 334.32 315.162 332.844 314.634 331.572C314.106 330.276 313.614 329.196 313.158 328.332C312.702 327.444 312.246 326.784 311.79 326.352C311.358 325.896 310.83 325.668 310.206 325.668H309.594V336H303.654V311.628ZM309.594 321.96H311.106C311.946 321.96 312.654 321.708 313.23 321.204C313.83 320.676 314.13 319.86 314.13 318.756C314.13 318.3 314.07 317.88 313.95 317.496C313.854 317.088 313.686 316.74 313.446 316.452C313.206 316.14 312.87 315.9 312.438 315.732C312.03 315.54 311.526 315.444 310.926 315.444H309.594V321.96ZM325.205 311.628H331.145V336H325.205V311.628ZM344.213 311.628C343.877 313.332 343.481 314.796 343.025 316.02C342.593 317.244 342.113 318.312 341.585 319.224C341.057 320.112 340.493 320.868 339.893 321.492C339.293 322.116 338.669 322.68 338.021 323.184L346.445 336H339.821L331.541 322.644V322.212C332.597 321.708 333.485 321.12 334.205 320.448C334.949 319.752 335.573 318.972 336.077 318.108C336.581 317.22 337.001 316.248 337.337 315.192C337.697 314.112 338.021 312.924 338.309 311.628H344.213ZM371.737 311.628H377.677V336H372.601L365.653 325.488C365.509 325.272 365.305 324.96 365.041 324.552C364.801 324.144 364.537 323.724 364.249 323.292C363.985 322.836 363.721 322.404 363.457 321.996C363.217 321.564 363.013 321.216 362.845 320.952C362.869 321.312 362.893 321.756 362.917 322.284C362.965 322.788 363.001 323.304 363.025 323.832C363.073 324.36 363.109 324.876 363.133 325.38C363.157 325.884 363.169 326.304 363.169 326.64L363.277 336H357.337V311.628H362.197L369.217 322.068C369.433 322.404 369.673 322.788 369.937 323.22C370.201 323.628 370.465 324.048 370.729 324.48C371.017 324.912 371.281 325.332 371.521 325.74C371.761 326.124 371.965 326.46 372.133 326.748C372.109 326.364 372.085 325.92 372.061 325.416C372.037 324.912 372.001 324.396 371.953 323.868C371.929 323.316 371.905 322.788 371.881 322.284C371.857 321.78 371.845 321.336 371.845 320.952L371.737 311.628ZM387.702 311.628V326.136C387.702 327.192 387.81 328.068 388.026 328.764C388.266 329.46 388.578 330.024 388.962 330.456C389.37 330.888 389.85 331.2 390.402 331.392C390.954 331.56 391.542 331.644 392.166 331.644C393.462 331.644 394.446 331.188 395.118 330.276C395.814 329.34 396.162 327.96 396.162 326.136V311.628H402.102V326.46C402.102 327.756 401.922 328.992 401.562 330.168C401.202 331.344 400.602 332.388 399.762 333.3C398.946 334.188 397.878 334.896 396.558 335.424C395.238 335.952 393.618 336.216 391.698 336.216C389.85 336.216 388.29 335.952 387.018 335.424C385.77 334.872 384.762 334.152 383.994 333.264C383.226 332.352 382.662 331.308 382.302 330.132C381.966 328.956 381.798 327.732 381.798 326.46V311.628H387.702ZM413.585 311.304C414.449 311.304 415.277 311.376 416.069 311.52C416.885 311.664 417.641 311.844 418.337 312.06C419.033 312.276 419.657 312.528 420.209 312.816C420.785 313.08 421.277 313.356 421.685 313.644L419.597 317.604C419.309 317.46 418.961 317.28 418.553 317.064C418.145 316.824 417.701 316.596 417.221 316.38C416.765 316.164 416.285 315.984 415.781 315.84C415.301 315.696 414.833 315.624 414.377 315.624C413.537 315.624 412.913 315.804 412.505 316.164C412.097 316.5 411.893 316.932 411.893 317.46C411.917 317.868 412.013 318.228 412.181 318.54C412.349 318.852 412.601 319.164 412.937 319.476C413.273 319.764 413.705 320.052 414.233 320.34C414.761 320.628 415.409 320.928 416.177 321.24C417.137 321.648 417.977 322.068 418.697 322.5C419.417 322.932 420.005 323.424 420.461 323.976C420.941 324.528 421.301 325.152 421.541 325.848C421.781 326.544 421.901 327.348 421.901 328.26C421.901 329.364 421.697 330.408 421.289 331.392C420.905 332.352 420.341 333.192 419.597 333.912C418.853 334.632 417.953 335.196 416.897 335.604C415.841 336.012 414.653 336.216 413.333 336.216C412.397 336.216 411.497 336.132 410.633 335.964C409.793 335.796 409.013 335.58 408.293 335.316C407.573 335.052 406.913 334.776 406.313 334.488C405.713 334.176 405.197 333.888 404.765 333.624L406.709 329.376C406.877 329.496 407.189 329.7 407.645 329.988C408.101 330.252 408.617 330.528 409.193 330.816C409.769 331.08 410.357 331.32 410.957 331.536C411.557 331.752 412.097 331.86 412.577 331.86C413.585 331.86 414.317 331.632 414.773 331.176C415.253 330.696 415.493 330.024 415.493 329.16C415.493 328.296 415.193 327.648 414.593 327.216C414.017 326.76 413.189 326.316 412.109 325.884C411.053 325.452 410.117 324.996 409.301 324.516C408.485 324.036 407.789 323.496 407.213 322.896C406.661 322.296 406.229 321.624 405.917 320.88C405.629 320.136 405.485 319.272 405.485 318.288C405.485 317.208 405.701 316.248 406.133 315.408C406.589 314.544 407.189 313.812 407.933 313.212C408.677 312.588 409.529 312.12 410.489 311.808C411.473 311.472 412.505 311.304 413.585 311.304ZM431.435 311.628H436.727L445.655 336H439.643L437.843 330.132H429.959L428.087 336H422.183L431.435 311.628ZM436.511 325.74C436.271 325.044 436.019 324.324 435.755 323.58C435.515 322.812 435.275 322.068 435.035 321.348C434.819 320.628 434.615 319.956 434.423 319.332C434.231 318.684 434.063 318.144 433.919 317.712C433.775 318.168 433.607 318.72 433.415 319.368C433.223 319.992 433.007 320.664 432.767 321.384C432.551 322.104 432.311 322.836 432.047 323.58C431.807 324.324 431.567 325.044 431.327 325.74H436.511ZM462.23 311.628H468.17V336H463.094L456.146 325.488C456.002 325.272 455.798 324.96 455.534 324.552C455.294 324.144 455.03 323.724 454.742 323.292C454.478 322.836 454.214 322.404 453.95 321.996C453.71 321.564 453.506 321.216 453.338 320.952C453.362 321.312 453.386 321.756 453.41 322.284C453.458 322.788 453.494 323.304 453.518 323.832C453.566 324.36 453.602 324.876 453.626 325.38C453.65 325.884 453.662 326.304 453.662 326.64L453.77 336H447.83V311.628H452.69L459.71 322.068C459.926 322.404 460.166 322.788 460.43 323.22C460.694 323.628 460.958 324.048 461.222 324.48C461.51 324.912 461.774 325.332 462.014 325.74C462.254 326.124 462.458 326.46 462.626 326.748C462.602 326.364 462.578 325.92 462.554 325.416C462.53 324.912 462.494 324.396 462.446 323.868C462.422 323.316 462.398 322.788 462.374 322.284C462.35 321.78 462.338 321.336 462.338 320.952L462.23 311.628ZM488.598 311.628L487.842 315.984H482.226V336H476.286V315.984H470.49V311.628H488.598ZM495.736 311.628H501.028L509.956 336H503.944L502.144 330.132H494.26L492.388 336H486.484L495.736 311.628ZM500.812 325.74C500.572 325.044 500.32 324.324 500.056 323.58C499.816 322.812 499.576 322.068 499.336 321.348C499.12 320.628 498.916 319.956 498.724 319.332C498.532 318.684 498.364 318.144 498.22 317.712C498.076 318.168 497.908 318.72 497.716 319.368C497.524 319.992 497.308 320.664 497.068 321.384C496.852 322.104 496.612 322.836 496.348 323.58C496.108 324.324 495.868 325.044 495.628 325.74H500.812ZM512.13 311.628C512.346 311.628 512.778 311.628 513.426 311.628C514.074 311.604 514.794 311.592 515.586 311.592C516.378 311.592 517.146 311.592 517.89 311.592C518.634 311.568 519.21 311.556 519.618 311.556C522.69 311.556 524.994 312.144 526.53 313.32C528.066 314.496 528.834 316.236 528.834 318.54C528.834 320.076 528.462 321.348 527.718 322.356C526.974 323.34 525.966 324.108 524.694 324.66C525.414 325.068 526.05 325.608 526.602 326.28C527.154 326.952 527.682 327.768 528.186 328.728C528.69 329.664 529.194 330.744 529.698 331.968C530.226 333.192 530.802 334.536 531.426 336H525.054C524.286 334.32 523.638 332.844 523.11 331.572C522.582 330.276 522.09 329.196 521.634 328.332C521.178 327.444 520.722 326.784 520.266 326.352C519.834 325.896 519.306 325.668 518.682 325.668H518.07V336H512.13V311.628ZM518.07 321.96H519.582C520.422 321.96 521.13 321.708 521.706 321.204C522.306 320.676 522.606 319.86 522.606 318.756C522.606 318.3 522.546 317.88 522.426 317.496C522.33 317.088 522.162 316.74 521.922 316.452C521.682 316.14 521.346 315.9 520.914 315.732C520.506 315.54 520.002 315.444 519.402 315.444H518.07V321.96ZM541.368 311.628H546.66L555.588 336H549.576L547.776 330.132H539.892L538.02 336H532.116L541.368 311.628ZM546.444 325.74C546.204 325.044 545.952 324.324 545.688 323.58C545.448 322.812 545.208 322.068 544.968 321.348C544.752 320.628 544.548 319.956 544.356 319.332C544.164 318.684 543.996 318.144 543.852 317.712C543.708 318.168 543.54 318.72 543.348 319.368C543.156 319.992 542.94 320.664 542.7 321.384C542.484 322.104 542.244 322.836 541.98 323.58C541.74 324.324 541.5 325.044 541.26 325.74H546.444Z" fill="#09017B"/>
</g>
<defs>
<filter id="filter0_d_267_7741" x="-5" y="-0.999939" width="564.588" height="352.704" filterUnits="userSpaceOnUse" color-interpolation-filters="sRGB">
<feFlood flood-opacity="0" result="BackgroundImageFix"/>
<feColorMatrix in="SourceAlpha" type="matrix" values="0 0 0 0 0 0 0 0 0 0 0 0 0 0 0 0 0 0 127 0" result="hardAlpha"/>
<feOffset dy="4"/>
<feGaussianBlur stdDeviation="2"/>
<feComposite in2="hardAlpha" operator="out"/>
<feColorMatrix type="matrix" values="0 0 0 0 0 0 0 0 0 0 0 0 0 0 0 0 0 0 0.25 0"/>
<feBlend mode="normal" in2="BackgroundImageFix" result="effect1_dropShadow_267_7741"/>
<feBlend mode="normal" in="SourceGraphic" in2="effect1_dropShadow_267_7741" result="shape"/>
</filter>
<filter id="filter1_d_267_7741" x="-1" y="-0.999939" width="536.051" height="294.401" filterUnits="userSpaceOnUse" color-interpolation-filters="sRGB">
<feFlood flood-opacity="0" result="BackgroundImageFix"/>
<feColorMatrix in="SourceAlpha" type="matrix" values="0 0 0 0 0 0 0 0 0 0 0 0 0 0 0 0 0 0 127 0" result="hardAlpha"/>
<feOffset dx="5" dy="1"/>
<feComposite in2="hardAlpha" operator="out"/>
<feColorMatrix type="matrix" values="0 0 0 0 0 0 0 0 0 0 0 0 0 0 0 0 0 0 0.24 0"/>
<feBlend mode="normal" in2="BackgroundImageFix" result="effect1_dropShadow_267_7741"/>
<feBlend mode="normal" in="SourceGraphic" in2="effect1_dropShadow_267_7741" result="shape"/>
</filter>
</defs>
</svg>
